<svg width="199" height="89" viewBox="0 0 199 89" fill="none" xmlns="http://www.w3.org/2000/svg">
<g clip-path="url(#clip0)">
<ellipse cx="66.5742" cy="34.8342" rx="18.6992" ry="20" fill="white"/>
<path d="M96.3984 68.8342C96.3984 76.5662 83.0457 74.8342 66.5742 74.8342C50.1028 74.8342 36.75 76.5662 36.75 68.8342C36.75 61.1022 50.1028 44.8342 66.5742 44.8342C83.0457 44.8342 96.3984 61.1022 96.3984 68.8342Z" fill="white"/>
</g>
<ellipse cx="136.574" cy="34.8342" rx="18.6992" ry="20" fill="white"/>
<path d="M166.398 68.8342C166.398 76.5662 153.046 74.8342 136.574 74.8342C120.103 74.8342 106.75 76.5662 106.75 68.8342C106.75 61.1022 120.103 44.8342 136.574 44.8342C153.046 44.8342 166.398 61.1022 166.398 68.8342Z" fill="white"/>
<defs>
<clipPath id="clip0">
<rect width="105" height="75" fill="white" transform="translate(6)"/>
</clipPath>
</defs>
</svg>
