<svg width="49" height="51" viewBox="0 0 49 51" fill="none" xmlns="http://www.w3.org/2000/svg">
<line x1="2" y1="2" x2="8" y2="2" stroke="white" stroke-width="4" stroke-linecap="round"/>
<line x1="8.43631" y1="2.4368" x2="15.4368" y2="29.5637" stroke="white" stroke-width="4" stroke-linecap="round"/>
<line x1="16" y1="30" x2="42" y2="30" stroke="white" stroke-width="4" stroke-linecap="round"/>
<line x1="13" y1="12" x2="46" y2="12" stroke="white" stroke-width="4" stroke-linecap="round"/>
<line x1="42.5176" y1="29.5911" x2="46.5911" y2="12.4824" stroke="white" stroke-width="4" stroke-linecap="round"/>
<path d="M26 42.5C26 46.6421 22.6421 50 18.5 50C14.3579 50 11 46.6421 11 42.5C11 38.3579 14.3579 35 18.5 35C22.6421 35 26 38.3579 26 42.5ZM14.9412 42.5C14.9412 44.4655 16.5345 46.0588 18.5 46.0588C20.4655 46.0588 22.0588 44.4655 22.0588 42.5C22.0588 40.5345 20.4655 38.9412 18.5 38.9412C16.5345 38.9412 14.9412 40.5345 14.9412 42.5Z" fill="white"/>
<path d="M46 43.5C46 47.6421 42.6421 51 38.5 51C34.3579 51 31 47.6421 31 43.5C31 39.3579 34.3579 36 38.5 36C42.6421 36 46 39.3579 46 43.5ZM34.9412 43.5C34.9412 45.4655 36.5345 47.0588 38.5 47.0588C40.4655 47.0588 42.0588 45.4655 42.0588 43.5C42.0588 41.5345 40.4655 39.9412 38.5 39.9412C36.5345 39.9412 34.9412 41.5345 34.9412 43.5Z" fill="white"/>
</svg>
