<svg width="120" height="120" viewBox="0 0 120 120" fill="none" xmlns="http://www.w3.org/2000/svg">
<circle cx="60" cy="60" r="60" fill="#777777"/>
<circle cx="60" cy="48" r="14.5" fill="#A5A0A6" fill-opacity="0.8" stroke="white" stroke-width="3"/>
<path d="M81.9989 71.0515C81.999 71.0521 81.9991 71.0525 81.9992 71.053C81.9991 71.0534 81.999 71.054 81.9989 71.0545C81.9932 71.0829 81.958 71.2577 81.7421 71.6002C81.5053 71.9761 81.1212 72.4422 80.5724 72.9723C79.4776 74.0297 77.8458 75.2278 75.7912 76.3565C71.6814 78.6142 66.053 80.5 60 80.5C53.95 80.5 48.4522 78.616 44.4753 76.3657C42.4865 75.2403 40.9187 74.0461 39.8706 72.9931C39.3454 72.4654 38.9783 72.0008 38.7517 71.6251C38.5282 71.2546 38.5028 71.0726 38.5003 71.0544C38.5002 71.0538 38.5001 71.0533 38.5001 71.0531C38.5001 71.0529 38.5002 71.0525 38.5002 71.052C38.5026 71.0345 38.5277 70.8502 38.7537 70.4733C38.9812 70.094 39.3493 69.6248 39.8751 69.0921C40.9243 68.0289 42.4929 66.8219 44.4815 65.6839C48.4586 63.4081 53.9543 61.5 60 61.5C66.0488 61.5 71.675 63.4099 75.785 65.6932C77.8394 66.8345 79.4719 68.0455 80.5678 69.1129C81.1172 69.648 81.5023 70.1186 81.7401 70.4982C81.9579 70.846 81.9933 71.0231 81.9989 71.0515Z" fill="#A5A0A6" fill-opacity="0.8" stroke="white" stroke-width="3"/>
</svg>
